# xmcd
#
# Track frame offsets:
#	150
#	23588
#	42361
#	58647
#	75124
#	90872
#	112073
#	129093
#	153039
#	173306
#	202019
#
# Disc length: 2989 seconds
#
# Revision: 0
# Processed by: cddbd v1.5.1PL0 Copyright (c) Steve Scherf et al.
# Submitted via: dBpowerAMP V4.0
#
DISCID=6d0bab0b
DTITLE=Aute Luis Eduardo - 20 Canciones de amor y un poema desesperado
DYEAR=1900
DGENRE=Pop
TTITLE0=Prologo: Lastima Luis
TTITLE1=Anda
TTITLE2=Pasaba por  aqui
TTITLE3=Tarde muy tarde
TTITLE4=Hembra mia
TTITLE5=Dentro
TTITLE6=De alguna manera
TTITLE7=Dos o tres segundos de ternura
TTITLE8=No te desnudes todavia
TTITLE9=Cuando duermes
TTITLE10=Al alba
EXTD=VEINTE CANCIONES DE AMOR Y UN POEMA DESESPERADO
EXTT0=
EXTT1=
EXTT2=
EXTT3=
EXTT4=
EXTT5=
EXTT6=
EXTT7=
EXTT8=
EXTT9=
EXTT10=
PLAYORDER=
